<?xml version="1.0" standalone="no"?>
<!DOCTYPE svg PUBLIC "-//W3C//DTD SVG 20010904//EN"
 "http://www.w3.org/TR/2001/REC-SVG-20010904/DTD/svg10.dtd">
<svg version="1.0" xmlns="http://www.w3.org/2000/svg"
 width="735.000000pt" height="1280.000000pt" viewBox="0 0 735.000000 1280.000000"
 preserveAspectRatio="xMidYMid meet">

<g transform="translate(0.000000,1280.000000) scale(0.100000,-0.100000)"
fill="#000000" stroke="none">
<path d="M0 6400 l0 -6400 3675 0 3675 0 0 6400 0 6400 -3675 0 -3675 0 0
-6400z m3965 6261 c58 -26 111 -90 131 -156 14 -49 14 -65 3 -121 -10 -52 -20
-72 -53 -108 -70 -75 -165 -108 -245 -86 -37 10 -46 8 -75 -9 -51 -32 -59 -28
-52 23 6 37 3 51 -17 83 -53 86 -61 167 -23 248 24 53 80 109 130 131 46 20
153 17 201 -5z m363 -573 c17 -14 15 -73 -3 -109 -18 -33 -89 -89 -115 -89
-22 0 -33 -37 -19 -62 13 -24 42 -16 88 24 26 23 36 27 42 16 21 -32 -2 -70
-62 -107 -63 -39 -120 -24 -139 35 -23 70 15 199 78 266 45 47 91 56 130 26z
m-227 -40 c30 -70 1 -223 -54 -285 -26 -30 -35 -34 -66 -31 -20 3 -43 7 -51 9
-11 3 -16 -7 -18 -39 -3 -38 -1 -43 15 -39 36 10 301 30 317 24 22 -9 21 -54
-1 -61 -10 -3 -81 -12 -158 -21 -185 -20 -190 -22 -203 -50 -14 -30 -35 -32
-53 -5 -14 19 -15 19 -109 1 -52 -10 -115 -22 -140 -25 -25 -4 -50 -10 -55
-14 -6 -4 -28 -47 -50 -97 -42 -98 -93 -168 -136 -191 -39 -19 -82 -18 -110 5
-20 16 -24 28 -23 73 1 94 70 186 183 246 52 28 61 38 75 79 21 61 20 67 -6
49 -24 -17 -65 -21 -85 -8 -29 19 -24 120 13 215 8 20 14 48 14 61 0 13 7 26
15 30 26 10 45 -5 45 -35 0 -15 -7 -54 -15 -86 -19 -73 -19 -103 0 -103 27 0
54 43 86 138 31 94 63 142 94 142 34 0 34 -1 -61 -333 -14 -49 -24 -91 -21
-93 8 -8 292 48 299 60 17 26 8 43 -20 38 -18 -2 -33 2 -41 12 -12 14 -15 13
-33 -9 -28 -36 -81 -35 -105 2 -38 58 -10 215 51 288 30 36 38 40 77 38 24 0
49 4 56 9 18 14 53 0 53 -22 0 -11 -9 -58 -20 -105 -11 -47 -20 -95 -20 -105
0 -28 29 -25 34 3 3 12 12 65 22 117 9 52 21 105 25 118 9 24 38 29 56 11 9
-9 16 -8 28 5 9 9 31 16 50 16 27 0 35 -5 46 -32z m2624 -2186 c57 -25 117
-84 144 -141 l26 -56 0 -2920 0 -2920 -28 -57 c-26 -54 -68 -96 -127 -129 -20
-11 -127 -15 -555 -19 l-530 -5 -1 -70 c-1 -128 -68 -232 -181 -283 -35 -16
-151 -17 -1693 -17 -1346 0 -1663 2 -1699 13 -27 8 -64 33 -96 63 -68 64 -98
138 -94 230 l3 64 -540 5 c-532 5 -539 5 -574 27 -43 26 -79 65 -111 118 l-24
40 0 2940 0 2940 27 51 c41 77 107 123 198 134 30 4 1353 7 2940 6 2352 -1
2890 -3 2915 -14z m-5475 -9277 l0 -185 -30 0 -30 0 0 185 0 185 30 0 30 0 0
-185z m1320 173 c0 -5 0 -87 0 -183 l0 -175 -37 1 c-21 0 -49 -2 -63 -6 -63
-16 -120 44 -120 128 0 95 44 144 119 134 l41 -5 0 52 c0 29 3 56 7 60 9 9 54
4 53 -6z m2865 -22 c54 -23 78 -80 73 -177 -2 -61 -8 -84 -26 -108 l-22 -30
25 -24 c26 -23 26 -23 6 -41 -19 -17 -21 -17 -53 7 -18 13 -53 27 -77 30 -87
11 -134 74 -133 180 0 34 8 79 17 100 28 68 111 96 190 63z m463 -13 c4 -28
-34 -42 -55 -20 -23 23 -9 49 24 45 20 -2 29 -9 31 -25z m-4858 3 c0 -7 18
-57 40 -110 22 -53 40 -103 40 -111 0 -9 9 -33 20 -54 21 -43 18 -51 -19 -51
-21 0 -29 8 -43 40 l-17 40 -61 0 -62 0 -15 -40 c-14 -34 -21 -40 -45 -40 -33
0 -34 9 -8 75 11 27 38 98 61 158 l41 107 34 0 c22 0 34 -5 34 -14z m2200 -56
l0 -70 75 0 75 0 0 70 0 70 30 0 c29 0 30 -1 32 -52 5 -134 3 -269 -3 -279 -3
-6 -17 -9 -30 -7 -22 3 -24 8 -27 76 l-3 73 -72 -3 -72 -3 -3 -72 -3 -73 -29
0 -30 0 0 170 0 170 30 0 30 0 0 -70z m-1747 -31 c27 -21 53 -90 43 -115 -4
-10 -26 -14 -86 -14 -44 0 -80 -4 -80 -9 0 -4 9 -20 21 -35 23 -30 54 -33 88
-10 20 15 24 15 38 1 19 -19 9 -35 -33 -53 -44 -18 -68 -18 -111 3 -79 37 -86
185 -11 237 32 23 100 20 131 -5z m150 -14 c9 -19 21 -35 27 -35 6 0 18 16 26
35 12 29 19 35 44 35 38 0 38 -14 0 -73 -16 -26 -30 -51 -30 -55 0 -4 16 -32
35 -62 19 -30 35 -58 35 -63 0 -4 -14 -7 -32 -5 -26 2 -36 11 -52 41 -11 20
-22 37 -25 37 -3 0 -16 -18 -29 -40 -18 -33 -28 -40 -52 -40 -17 0 -30 4 -30
9 0 5 16 33 35 62 19 30 35 58 35 64 0 6 -16 33 -34 61 -19 29 -32 54 -29 58
4 3 18 6 33 6 20 0 30 -8 43 -35z m342 29 c30 -12 44 -58 46 -155 l2 -94 -54
-3 c-118 -7 -121 -6 -141 17 -45 57 -5 131 71 131 49 0 69 14 55 37 -14 23
-57 28 -74 9 -14 -18 -56 -21 -65 -6 -4 6 7 24 24 40 24 24 38 30 74 30 25 0
53 -3 62 -6z m158 -6 c3 -10 7 -10 20 0 9 8 33 12 59 10 62 -4 79 -41 76 -163
-3 -90 -3 -90 -30 -93 -23 -3 -28 1 -32 30 -4 18 -7 65 -9 103 -2 69 -2 70
-30 73 -45 5 -56 -20 -57 -121 l0 -88 -27 3 -28 3 -3 128 -3 127 30 0 c16 0
31 -6 34 -12z m662 -10 c24 -22 50 -109 37 -123 -3 -3 -41 -5 -84 -5 -85 0
-95 -8 -58 -48 25 -26 52 -28 85 -6 27 18 45 12 45 -15 0 -20 -54 -51 -89 -51
-36 0 -86 26 -104 53 -37 56 -14 181 38 206 38 18 102 13 130 -11z m130 12 c5
-8 11 -7 20 0 8 6 24 10 37 8 34 -5 33 -52 -2 -56 -45 -7 -50 -19 -50 -113 l0
-89 -30 0 -30 0 0 130 0 130 24 0 c14 0 28 -5 31 -10z m655 -100 c5 -100 6
-105 28 -108 42 -6 52 13 52 107 0 97 7 114 41 109 24 -3 24 -4 24 -128 l0
-125 -40 -2 c-22 -2 -57 -5 -77 -9 -33 -5 -41 -2 -68 24 -30 30 -30 32 -30
137 l0 106 33 -3 32 -3 5 -105z m377 86 c26 -23 28 -28 31 -131 l4 -107 -38 3
c-22 2 -54 0 -72 -5 -71 -17 -128 41 -102 103 13 32 45 49 100 53 30 3 35 7
35 28 0 20 -6 26 -29 28 -19 2 -32 -2 -38 -12 -12 -21 -68 -22 -68 -1 0 9 11
27 25 40 34 35 112 35 152 1z m149 13 c4 -8 9 -8 17 0 6 6 30 11 53 11 34 0
47 -5 63 -26 18 -23 21 -41 21 -130 l0 -104 -30 0 -30 0 0 86 c0 96 -10 124
-44 124 -37 0 -45 -20 -48 -116 -3 -85 -4 -89 -27 -92 -13 -2 -28 2 -32 10
-10 15 -12 232 -2 241 10 11 51 8 59 -4z m376 -3 c28 -21 38 -62 38 -157 l0
-90 -42 0 c-24 0 -63 -1 -87 -1 -37 -2 -48 3 -68 26 -45 53 -7 116 74 126 43
4 48 8 48 30 0 21 -5 26 -33 28 -22 2 -34 -2 -38 -12 -8 -20 -64 -22 -64 -2 0
8 14 26 31 40 23 20 41 26 77 26 26 0 55 -6 64 -14z m269 -15 c35 -35 39 -71
8 -71 -12 0 -30 11 -41 25 -22 28 -59 33 -78 10 -6 -8 -14 -31 -17 -52 -11
-86 43 -130 97 -78 50 48 85 9 36 -40 -32 -32 -69 -40 -116 -26 -45 13 -71 49
-78 107 -10 91 37 154 115 154 36 0 50 -6 74 -29z m255 14 c54 -37 70 -138 31
-196 -48 -71 -127 -77 -184 -15 -28 30 -33 43 -33 86 0 57 19 101 52 124 28
20 107 21 134 1z m594 -67 c0 -46 3 -93 6 -106 9 -30 49 -40 74 -17 17 16 20
31 20 112 l0 94 28 -3 27 -3 3 -128 3 -128 -43 1 c-24 0 -59 -2 -79 -6 -29 -5
-41 -1 -65 19 -28 24 -29 30 -32 121 -5 113 -1 126 33 126 25 0 25 -1 25 -82z
m285 -48 l0 -125 -30 0 -30 0 -3 114 c-1 63 0 121 3 129 3 8 16 12 32 10 l28
-3 0 -125z m236 101 c16 -16 29 -34 29 -40 0 -17 -56 -13 -70 5 -19 22 -65 14
-65 -11 0 -15 12 -24 47 -35 88 -28 114 -82 63 -130 -37 -35 -123 -35 -160 0
-14 13 -25 32 -25 42 0 25 46 24 60 -2 11 -21 54 -27 80 -10 11 7 12 14 4 27
-10 16 -30 25 -86 37 -32 7 -62 57 -53 87 13 39 46 59 98 59 40 0 53 -5 78
-29z m252 11 c27 -24 38 -59 38 -119 0 -95 -44 -141 -123 -128 l-38 7 0 -51
c0 -50 -1 -51 -30 -51 l-30 0 0 178 0 179 82 1 c65 1 87 -3 101 -16z m266 -3
c27 -25 41 -60 41 -100 l0 -29 -80 0 c-86 0 -94 -6 -64 -48 18 -26 50 -28 83
-6 21 15 24 15 39 0 16 -16 15 -19 -7 -37 -35 -28 -70 -34 -114 -18 -74 26
-104 102 -72 184 20 53 52 74 111 75 27 0 47 -7 63 -21z"/>
<path d="M3976 12502 c-14 -22 -32 -55 -41 -73 -9 -19 -23 -47 -31 -62 -16
-29 -12 -61 7 -55 6 2 29 39 52 83 23 44 45 82 50 83 10 5 9 50 -3 57 -5 3
-20 -12 -34 -33z"/>
<path d="M3746 12517 c-12 -9 -17 -23 -14 -47 3 -31 10 -39 56 -63 55 -30 66
-51 30 -63 -17 -5 -28 0 -50 27 -32 38 -54 30 -42 -15 8 -32 35 -48 79 -48 52
0 75 17 75 57 0 35 -16 51 -82 85 -32 15 -36 35 -10 45 12 4 25 -3 44 -25 40
-48 69 -14 32 38 -12 17 -25 22 -58 22 -23 0 -50 -6 -60 -13z"/>
<path d="M4252 12033 c-11 -4 -42 -54 -42 -68 0 -13 29 -3 48 18 33 35 30 64
-6 50z"/>
<path d="M4001 11989 c-21 -22 -44 -84 -57 -154 -15 -79 61 -40 88 46 21 67
22 90 5 113 -13 18 -15 18 -36 -5z"/>
<path d="M3752 11963 c-34 -13 -71 -137 -52 -173 23 -42 48 -18 81 78 31 90
23 116 -29 95z"/>
<path d="M3353 11435 c-43 -36 -89 -117 -78 -135 19 -31 68 15 114 108 36 72
26 80 -36 27z"/>
<path d="M1135 9358 c-3 -13 -4 -212 -3 -443 l3 -420 440 -5 c288 -3 443 -2
447 5 4 6 7 206 5 445 l-2 435 -442 3 -443 2 -5 -22z m770 -120 c3 -13 4 -158
3 -323 l-3 -300 -320 0 -320 0 -3 310 c-1 170 0 315 3 322 3 10 75 13 319 13
l316 0 5 -22z"/>
<path d="M1403 9123 c-10 -3 -13 -51 -13 -189 0 -182 0 -184 23 -189 12 -3 96
-4 187 -3 l165 3 3 188 2 187 -164 0 c-90 0 -170 2 -178 4 -7 3 -19 2 -25 -1z"/>
<path d="M2550 9375 c0 -3 -1 -87 -1 -187 l0 -183 58 0 58 0 0 185 0 185 -57
3 c-32 2 -58 1 -58 -3z"/>
<path d="M2800 9320 l0 -59 63 -3 62 -3 3 -127 3 -127 62 -3 62 -3 5 -125 5
-125 55 0 55 0 3 62 3 62 62 3 62 3 3 57 3 57 -63 3 -63 3 -3 63 c-2 39 -7 63
-15 64 -7 0 -34 2 -62 2 l-50 1 0 65 0 65 125 0 125 0 3 -128 3 -128 127 3
127 3 0 52 c-1 29 -4 55 -7 59 -4 3 -31 7 -60 8 l-53 1 -3 68 -3 67 59 0 c65
0 72 6 72 60 0 64 25 60 -391 60 l-379 0 0 -60z"/>
<path d="M3827 9373 c-4 -3 -7 -33 -7 -65 l0 -58 -60 0 -60 0 0 -380 0 -380
60 0 60 0 0 125 0 125 255 0 255 0 0 65 0 65 -190 0 -190 0 0 65 0 65 190 0
190 0 0 60 0 60 -45 1 c-83 3 -81 1 -84 84 l-1 45 -60 0 -59 0 -3 -62 -3 -63
-60 0 -60 0 0 65 0 65 63 3 62 3 0 59 0 60 -123 0 c-68 0 -127 -3 -130 -7z"/>
<path d="M4217 9373 c-4 -3 -7 -30 -7 -60 l0 -53 60 0 60 0 0 60 0 60 -53 0
c-30 0 -57 -3 -60 -7z"/>
<path d="M4594 9355 c-3 -14 -4 -39 -2 -55 6 -40 -6 -48 -72 -52 l-55 -3 0
-55 0 -55 317 -3 317 -2 3 62 3 63 60 0 60 0 5 -60 5 -60 60 0 60 0 0 120 0
120 -187 3 -188 2 0 -49 c0 -83 4 -81 -136 -81 l-123 0 -3 63 -3 62 -57 3
c-54 3 -58 2 -64 -23z"/>
<path d="M5490 8937 c0 -244 2 -446 4 -448 2 -2 203 -3 445 -1 l441 2 0 445 0
445 -445 0 -445 0 0 -443z m765 -2 l0 -320 -320 0 -320 0 -3 310 c-1 170 0
316 3 323 3 10 72 12 322 10 l318 -3 0 -320z"/>
<path d="M5922 9122 l-172 -2 2 -188 3 -187 180 0 180 0 3 186 c2 144 0 188
-10 190 -7 2 -91 3 -186 1z"/>
<path d="M2290 9198 c0 -54 -9 -80 -26 -77 -5 1 -30 1 -56 0 l-48 -1 0 -380 0
-380 60 0 60 0 0 190 0 189 63 3 62 3 5 60 5 60 60 5 60 5 3 58 3 57 -50 0
c-83 0 -81 -4 -81 136 l0 124 -60 0 -60 0 0 -52z"/>
<path d="M5117 9123 c-15 -4 -17 -14 -15 -61 l3 -57 63 -3 62 -3 0 61 c0 33
-3 60 -7 61 -54 5 -91 6 -106 2z"/>
<path d="M4340 8930 l0 -61 58 3 57 3 3 58 3 57 -61 0 -60 0 0 -60z"/>
<path d="M4597 8983 c-2 -5 -4 -30 -3 -58 l1 -50 185 0 185 0 3 58 3 57 -185
0 c-102 0 -187 -3 -189 -7z"/>
<path d="M3447 8863 c-4 -3 -7 -32 -7 -64 l0 -58 -127 -3 -128 -3 -3 -165 c-4
-218 -6 -212 66 -208 l57 3 3 128 3 128 62 -3 62 -3 3 -62 3 -61 57 -4 c31 -2
59 -2 62 0 8 6 13 270 5 328 l-6 54 -53 0 c-29 0 -56 -3 -59 -7z"/>
<path d="M4980 8821 c0 -77 -4 -81 -71 -81 l-59 0 0 -60 0 -60 59 0 c67 0 71
-4 71 -81 l0 -49 60 0 60 0 0 125 0 125 65 0 65 0 0 -117 c0 -65 4 -123 8
-128 4 -6 32 -9 65 -7 l57 4 -2 186 -3 187 -187 3 -188 2 0 -49z"/>
<path d="M2549 8735 c0 -3 -1 -29 -1 -57 l-1 -53 59 -5 59 -5 3 -62 3 -61 55
-4 c31 -1 58 0 59 3 2 3 5 59 6 125 l1 119 -121 3 c-66 1 -121 0 -122 -3z"/>
<path d="M2930 8617 c0 -68 2 -126 4 -128 2 -2 29 -2 60 -1 l56 4 0 124 0 124
-60 0 -60 0 0 -123z"/>
<path d="M4340 8680 l0 -60 60 0 61 0 -3 58 -3 57 -57 3 -58 3 0 -61z"/>
<path d="M4594 8727 c-3 -8 -4 -34 -2 -58 l3 -44 63 -3 63 -3 -3 58 -3 58 -58
3 c-43 2 -59 -1 -63 -11z"/>
<path d="M2420 8550 l0 -60 60 0 60 0 0 60 0 60 -60 0 -60 0 0 -60z"/>
<path d="M3950 8545 l0 -65 -60 0 c-66 0 -67 -1 -72 -85 l-3 -40 -57 -3 -57
-3 -3 -57 -3 -57 -60 -5 -60 -5 -3 -57 c-3 -63 -5 -61 61 -58 54 2 67 -13 67
-75 0 -57 7 -65 60 -65 54 0 60 7 60 70 0 65 8 73 66 64 50 -8 64 8 64 72 l0
54 65 0 65 0 0 65 0 65 125 0 125 0 0 125 0 125 -60 0 -59 0 -3 -62 -3 -63
-62 -3 -63 -3 0 66 0 65 -65 0 -65 0 0 -65z"/>
<path d="M4460 8485 l0 -125 65 0 65 0 0 125 0 125 -65 0 -65 0 0 -125z"/>
<path d="M4718 8483 l-3 -128 -60 -5 -60 -5 -3 -57 -3 -57 -62 -3 -62 -3 0
-60 0 -60 50 -1 c78 -1 75 1 75 -59 0 -44 4 -56 20 -65 12 -7 103 -9 252 -8
l233 3 0 60 0 60 -187 3 -188 2 0 65 0 65 60 0 60 0 0 190 0 190 -60 0 -59 0
-3 -127z"/>
<path d="M3570 8420 l0 -60 60 0 60 0 0 60 0 60 -60 0 -60 0 0 -60z"/>
<path d="M5102 8423 l3 -58 63 -3 62 -3 0 61 0 60 -66 0 -65 0 3 -57z"/>
<path d="M1137 8343 c-2 -5 -4 -30 -3 -58 l1 -50 60 0 60 0 3 58 3 57 -60 0
c-33 0 -62 -3 -64 -7z"/>
<path d="M1394 8336 c-3 -7 -4 -33 -2 -57 l3 -44 125 -5 125 -5 5 -60 5 -60
100 -2 c144 -4 143 -4 147 65 l3 57 60 5 60 5 3 58 3 57 -316 0 c-260 0 -317
-2 -321 -14z"/>
<path d="M2550 8290 l0 -60 119 0 119 0 4 56 c1 31 1 58 -1 60 -2 2 -58 4
-123 4 l-118 0 0 -60z"/>
<path d="M3312 8293 l3 -58 60 0 60 0 3 58 3 57 -66 0 -66 0 3 -57z"/>
<path d="M4340 8290 l0 -61 58 3 57 3 3 58 3 57 -61 0 -60 0 0 -60z"/>
<path d="M4980 8290 l0 -61 58 3 57 3 3 58 3 57 -61 0 -60 0 0 -60z"/>
<path d="M5490 8290 l0 -59 63 -3 62 -3 -3 -98 c-2 -53 -1 -110 3 -125 5 -26
10 -29 48 -30 70 -3 77 2 77 63 0 65 13 76 83 68 l47 -6 0 -63 0 -64 -60 0
-59 0 -3 -62 -3 -63 -127 -3 -128 -3 0 -59 0 -60 380 0 380 0 0 60 0 59 -62 3
-63 3 -3 63 -3 62 -59 0 -60 0 0 130 0 130 60 0 60 0 0 60 0 60 -315 0 -315 0
0 -60z"/>
<path d="M2037 8224 c-4 -4 -7 -31 -7 -60 0 -58 4 -62 72 -63 47 -1 58 14 55
75 l-2 49 -56 3 c-30 2 -58 0 -62 -4z"/>
<path d="M2297 8224 c-13 -13 -8 -112 6 -116 23 -8 212 -8 225 1 9 5 12 25 10
62 l-3 54 -116 3 c-63 1 -118 -1 -122 -4z"/>
<path d="M2937 8224 c-9 -10 -9 -114 1 -115 54 -5 223 -5 232 1 7 4 10 28 8
61 l-3 54 -116 3 c-63 1 -118 -1 -122 -4z"/>
<path d="M6134 8216 c-3 -7 -4 -35 -2 -62 l3 -49 120 0 120 0 3 63 3 62 -121
0 c-93 0 -122 -3 -126 -14z"/>
<path d="M1264 8087 c-3 -8 -4 -36 -2 -63 l3 -49 60 0 60 0 0 60 0 60 -58 3
c-42 2 -59 -1 -63 -11z"/>
<path d="M1912 8038 l3 -63 55 0 55 0 0 60 0 60 -58 3 -58 3 3 -63z"/>
<path d="M2800 8040 c0 -54 2 -60 24 -66 13 -3 38 -4 57 -2 l34 3 3 63 3 62
-61 0 -60 0 0 -60z"/>
<path d="M3317 8093 c-4 -3 -7 -30 -7 -59 0 -63 2 -64 140 -64 108 0 120 6
120 61 0 69 1 69 -129 69 -65 0 -121 -3 -124 -7z"/>
<path d="M4212 8038 l3 -63 120 0 120 0 3 63 3 62 -126 0 -126 0 3 -62z"/>
<path d="M5237 8094 c-13 -13 -8 -101 7 -113 8 -7 36 -11 63 -9 l48 3 0 60 0
60 -55 3 c-31 2 -59 0 -63 -4z"/>
<path d="M1134 7957 c-2 -7 -3 -62 -2 -123 l3 -109 62 -3 62 -3 3 -62 3 -62
60 0 60 0 3 123 3 122 -66 0 -65 0 0 65 0 65 -60 0 c-41 0 -62 -4 -66 -13z"/>
<path d="M1394 7957 c-3 -8 -4 -36 -2 -62 l3 -48 53 1 c28 0 56 1 61 1 5 1 8
27 7 59 l-1 57 -58 3 c-42 2 -59 -1 -63 -11z"/>
<path d="M1777 7943 c-3 -16 -4 -43 -3 -62 l1 -33 63 -2 62 -1 0 62 0 63 -59
0 c-56 0 -59 -1 -64 -27z"/>
<path d="M2290 7908 l0 -63 60 0 60 0 0 63 0 62 -60 0 -60 0 0 -62z"/>
<path d="M2674 7956 c-3 -7 -4 -35 -2 -61 l3 -48 55 0 c30 0 55 4 56 9 1 5 4
33 7 62 l4 52 -59 0 c-41 0 -60 -4 -64 -14z"/>
<path d="M3062 7909 l3 -62 55 0 55 0 3 62 3 61 -61 0 -61 0 3 -61z"/>
<path d="M3570 7905 l0 -65 -130 0 -130 0 0 -60 0 -59 63 -3 62 -3 3 -60 c2
-32 7 -64 12 -70 5 -6 6 -16 1 -21 -5 -5 -18 -38 -30 -73 -37 -115 -28 -253
26 -369 12 -25 13 -36 4 -45 -6 -6 -11 -34 -11 -63 0 -60 -5 -63 -77 -57 l-52
5 -3 52 -3 51 -122 3 -123 3 0 -125 0 -125 48 -3 47 -3 -3 -35 c-2 -19 -8 -48
-14 -63 -9 -24 -15 -28 -47 -25 l-36 3 -3 63 -3 62 -59 0 -59 0 -3 -62 -3 -63
-62 -3 -63 -3 0 -59 0 -60 114 0 c63 0 121 -3 130 -6 12 -5 16 -20 16 -64 0
-38 4 -60 13 -63 7 -3 19 -23 26 -45 12 -37 12 -41 -8 -61 -30 -30 -41 -19
-41 45 l0 54 -60 0 -59 0 -3 -62 -3 -63 -63 -3 -63 -3 3 -122 3 -122 53 -3 53
-3 -3 -62 -3 -62 -117 -3 -118 -3 0 191 0 191 -61 -3 -62 -3 2 -96 c1 -53 -1
-108 -5 -123 -6 -24 -10 -26 -65 -26 l-59 0 0 -60 0 -60 54 0 c61 0 79 -14 76
-57 -1 -15 -2 -67 -1 -115 l1 -88 60 0 60 0 0 65 0 66 63 -3 62 -3 3 -59 c4
-70 -2 -76 -75 -76 l-53 0 0 -125 0 -125 -60 0 -60 0 -1 -110 c-1 -60 -3 -114
-4 -120 -1 -5 -3 -15 -4 -20 -1 -7 -25 -10 -63 -8 l-63 3 -3 63 -3 62 -59 0
-59 0 -3 -62 -3 -63 -62 -3 -63 -3 0 -59 0 -59 128 -3 127 -3 3 -63 3 -63 57
3 57 3 5 60 5 60 60 0 60 0 3 -127 3 -128 -60 0 c-33 0 -61 -4 -63 -10 -1 -5
-2 -91 0 -189 l3 -180 57 -3 57 -3 5 -125 5 -125 39 -3 c81 -7 81 -6 78 109
-2 56 -1 113 3 126 5 22 9 24 68 21 l62 -3 5 -125 5 -125 55 0 55 0 5 60 5 60
63 3 62 3 1 -48 c1 -26 2 -55 3 -63 1 -12 21 -16 106 -18 150 -4 150 -4 150
68 l0 60 125 0 124 0 3 63 3 62 63 3 62 3 0 59 0 60 -125 0 -124 0 -3 -62 -3
-63 -125 0 -125 0 -5 60 -5 60 -60 5 -60 5 -3 62 -3 62 63 3 63 3 3 63 3 62
119 0 c132 0 140 4 140 69 0 55 -7 61 -71 61 l-59 0 0 65 0 64 63 3 62 3 5 60
5 59 95 -3 c53 -1 108 1 122 4 25 6 27 11 30 68 l3 62 60 0 60 0 3 -62 c4 -78
10 -81 130 -63 1 0 2 56 2 125 l0 125 -192 2 -193 3 -5 60 -5 60 -55 0 -55 0
-5 -125 -5 -125 -190 0 -190 0 -3 62 -3 62 63 3 63 3 3 123 3 122 -126 0 -125
0 0 -60 0 -60 -70 0 -70 0 0 129 c0 71 3 137 6 145 5 13 15 6 46 -29 62 -71
107 -90 208 -90 69 0 93 5 130 23 45 24 176 153 186 184 5 18 38 33 53 24 12
-8 21 29 21 85 0 58 21 79 78 79 31 0 44 -5 52 -20 10 -19 19 -20 128 -18 110
3 116 4 122 25 6 28 78 82 107 83 19 0 22 -6 25 -52 l3 -53 120 0 120 0 3 50
c4 77 10 95 33 95 31 0 91 35 127 74 25 28 40 36 67 36 l35 0 0 60 c0 53 -2
60 -19 60 -32 0 -35 20 -7 48 18 19 26 22 27 12 1 -8 2 -22 3 -30 1 -13 38
-15 254 -18 l252 -2 0 60 0 59 -127 3 -128 3 -3 63 -3 62 -59 0 -59 0 -3 63
-3 62 -41 3 -41 3 -5 62 c-6 77 -35 135 -86 176 -54 42 -82 51 -168 51 -41 0
-74 4 -74 9 0 23 24 73 40 81 10 6 42 10 70 10 l51 0 -3 58 -3 57 -48 3 c-53
3 -53 4 -61 79 l-7 52 58 3 58 3 0 60 0 60 -86 3 -87 3 -27 39 c-31 44 -93 98
-142 124 -29 15 -33 21 -33 57 l0 41 59 -4 59 -4 4 34 c2 19 2 47 0 63 l-4 29
-187 -2 -186 -3 -3 -62 -3 -63 -59 0 c-56 0 -59 -1 -62 -26 -2 -15 -12 -32
-23 -38 -10 -6 -37 -21 -58 -34 -21 -13 -40 -22 -42 -20 -2 2 -5 27 -6 57 -3
63 9 75 77 69 l44 -3 0 62 0 63 -60 0 -60 0 0 -65z m413 -285 c61 -23 126 -82
160 -145 18 -33 22 -55 21 -130 -1 -60 -7 -103 -18 -128 -23 -52 -91 -118
-151 -147 -59 -29 -160 -38 -205 -20 -26 11 -34 9 -80 -19 -28 -17 -53 -31
-56 -31 -2 0 -4 31 -2 70 2 60 -1 73 -20 93 -27 29 -62 124 -62 169 0 88 56
202 121 249 84 59 197 75 292 39z m-733 -675 c0 -8 -53 -54 -62 -55 -5 0 -8
14 -8 30 0 28 3 30 35 30 19 0 35 -2 35 -5z m1185 -20 c64 -63 -6 -199 -123
-239 -31 -11 -38 -18 -40 -44 -4 -42 22 -56 66 -35 18 9 32 19 32 24 0 5 12
16 26 26 25 16 27 16 40 -2 22 -30 17 -49 -23 -90 -67 -67 -149 -85 -198 -42
-23 20 -28 34 -35 102 -4 44 -8 69 -9 55 -2 -36 -54 -141 -84 -169 -24 -22
-32 -23 -87 -18 l-60 7 0 -46 0 -47 38 6 c174 26 329 38 355 28 29 -11 38 -50
15 -69 -7 -6 -103 -22 -213 -37 -195 -25 -201 -27 -226 -55 -30 -35 -64 -39
-72 -10 -6 24 -28 25 -122 5 -39 -9 -104 -22 -145 -29 -111 -21 -126 -29 -134
-68 -9 -48 -71 -175 -114 -231 -111 -146 -288 -96 -242 68 15 54 73 147 118
189 34 32 55 45 124 78 47 23 64 50 84 132 l7 30 -31 -22 c-51 -37 -93 -26
-123 30 -13 25 -5 76 32 193 15 50 29 101 31 115 4 32 38 38 63 10 18 -20 18
-22 -8 -115 -35 -124 -35 -137 1 -133 22 2 33 14 57 63 17 33 43 99 59 146 22
69 33 89 57 103 38 22 73 13 66 -17 -10 -41 -58 -222 -67 -252 -36 -122 -57
-216 -49 -220 4 -3 61 4 125 15 64 11 129 20 144 20 15 0 41 5 59 11 27 9 32
16 29 38 -3 22 -7 26 -31 23 -17 -2 -36 3 -47 13 -17 15 -20 14 -45 -9 -33
-31 -83 -34 -115 -8 -50 40 -44 173 12 292 42 89 84 124 148 121 27 -1 51 3
55 9 9 15 41 12 54 -4 10 -12 6 -44 -15 -151 -20 -103 -24 -139 -16 -147 20
-20 29 2 56 152 15 80 30 153 32 163 6 19 53 24 71 6 8 -8 19 -5 41 11 24 18
38 21 66 16 32 -6 37 -11 51 -58 8 -28 15 -68 15 -87 1 -36 1 -35 29 24 63
136 155 192 216 130z m283 -297 l-3 -63 -50 0 -49 0 -2 63 -3 62 55 0 55 0 -3
-62z m-1758 -452 c0 -3 -5 -17 -11 -33 -9 -25 -11 -26 -21 -10 -12 23 -4 47
17 47 8 0 15 -2 15 -4z m98 -828 l-3 -63 -65 0 -65 0 -3 49 c-5 73 -2 76 73
76 l66 0 -3 -62z m-270 -67 c9 -5 12 -26 10 -67 l-3 -59 -62 -3 -63 -3 0 64
c0 35 3 67 7 70 9 10 95 8 111 -2z m520 -255 l3 -125 -63 -3 -63 -3 -3 -63 -3
-63 -62 3 -62 3 -5 60 -5 60 -55 0 -55 0 -5 -60 -5 -60 -59 -3 c-67 -3 -76 3
-76 60 0 62 6 68 71 68 l58 0 3 63 3 62 63 3 62 3 0 55 c0 68 3 70 147 67
l108 -2 3 -125z m-380 -448 l-3 -63 -59 -3 c-70 -4 -76 2 -76 76 l0 52 70 0
71 0 -3 -62z"/>
<path d="M3742 7443 c-12 -10 -24 -30 -28 -45 -7 -31 13 -53 89 -99 51 -31 57
-43 28 -59 -27 -14 -68 6 -75 36 -7 27 -33 32 -42 9 -11 -28 6 -65 39 -85 41
-25 73 -25 115 0 26 16 32 26 32 52 0 46 -11 59 -72 88 -57 27 -73 62 -31 68
21 3 29 -3 58 -43 14 -19 16 -19 29 -2 19 25 3 70 -30 86 -37 16 -89 13 -112
-6z"/>
<path d="M4007 7413 c-56 -98 -99 -194 -93 -208 14 -37 38 -8 110 128 50 95
57 127 28 127 -11 0 -29 -18 -45 -47z"/>
<path d="M4338 6843 c-16 -19 -38 -58 -38 -67 0 -3 7 -6 15 -6 23 0 65 46 65
70 0 25 -22 26 -42 3z"/>
<path d="M4042 6808 c-23 -28 -76 -213 -66 -230 10 -16 42 -8 68 18 31 31 48
88 50 164 1 49 -1 55 -20 58 -11 2 -26 -3 -32 -10z"/>
<path d="M3748 6769 c-26 -15 -65 -88 -72 -136 -7 -51 7 -93 32 -93 28 0 92
151 92 218 0 24 -22 29 -52 11z"/>
<path d="M3255 6129 c-47 -44 -95 -119 -95 -151 0 -39 32 -33 73 13 32 36 97
152 97 174 0 17 -37 -1 -75 -36z"/>
<path d="M4462 7909 l3 -62 60 0 60 0 3 62 3 61 -66 0 -66 0 3 -61z"/>
<path d="M5107 7963 c-8 -8 -9 -85 -2 -105 4 -9 17 -13 40 -10 19 2 46 1 59
-2 22 -5 25 -12 28 -64 l3 -57 63 -3 62 -3 0 61 0 60 -65 0 -65 0 0 65 0 65
-58 0 c-32 0 -62 -3 -65 -7z"/>
<path d="M5360 7910 c0 -33 3 -60 8 -60 4 -1 31 -2 60 -3 l52 -2 0 62 0 63
-60 0 -60 0 0 -60z"/>
<path d="M6260 7907 l0 -62 58 2 57 1 3 61 3 61 -61 0 -60 0 0 -63z"/>
<path d="M1650 7781 c0 -67 -4 -71 -81 -71 l-49 0 0 -60 0 -59 -62 -3 -63 -3
-3 -57 c-4 -70 -2 -70 143 -66 l100 3 5 60 5 60 63 3 62 3 0 124 0 125 -60 0
-60 0 0 -59z"/>
<path d="M1910 7780 l0 -59 123 -3 122 -3 3 -127 3 -127 -63 -3 -63 -3 0 -60
0 -60 190 -5 190 -5 3 -57 3 -58 59 0 60 0 0 60 0 59 123 3 122 3 5 60 5 60
60 5 60 5 3 123 3 122 -126 0 -126 0 3 -57 3 -58 63 -3 62 -3 0 -64 0 -65 -65
0 -64 0 -3 63 -3 62 -120 0 -120 0 -5 -60 -5 -60 -65 0 -65 0 0 60 0 60 63 3
62 3 0 59 0 60 -49 0 c-77 0 -81 4 -81 71 l0 59 -185 0 -185 0 0 -60z"/>
<path d="M2420 7780 l0 -60 60 0 60 0 0 60 0 60 -60 0 -60 0 0 -60z"/>
<path d="M4210 7780 l0 -60 60 0 60 0 0 60 0 60 -60 0 -60 0 0 -60z"/>
<path d="M4592 7718 l3 -123 63 -3 62 -3 0 -59 c0 -54 2 -60 23 -65 12 -3 96
-5 187 -3 l165 3 0 60 0 60 -187 3 -188 2 0 65 0 65 125 0 125 0 0 60 0 60
-190 0 -191 0 3 -122z"/>
<path d="M3187 7703 c-2 -5 -4 -30 -3 -58 l1 -50 60 0 60 0 3 58 3 57 -60 0
c-33 0 -62 -3 -64 -7z"/>
<path d="M5362 7588 l3 -123 55 0 55 0 3 123 3 122 -61 0 -61 0 3 -122z"/>
<path d="M1139 7588 c-7 -27 -9 -70 -4 -96 l6 -33 57 3 57 3 0 60 0 60 -57 3
c-32 2 -58 2 -59 0z"/>
<path d="M1776 7573 c-7 -24 1 -94 12 -105 5 -5 60 -7 123 -6 l114 3 0 60 0
60 -122 3 c-109 2 -122 1 -127 -15z"/>
<path d="M3065 7578 c-2 -7 -6 -35 -7 -63 l-3 -50 -63 -3 -63 -3 3 -62 3 -62
125 -5 124 -5 2 -50 c0 -27 2 -54 2 -60 1 -6 28 -9 59 -9 l58 2 0 123 0 124
-62 3 -62 3 -3 62 -3 62 -53 3 c-36 2 -54 -1 -57 -10z"/>
<path d="M5619 7575 c-10 -117 -10 -117 59 -113 l57 3 0 60 0 60 -57 3 c-47 2
-58 0 -59 -13z"/>
<path d="M5877 7584 c-13 -13 -7 -101 7 -113 9 -8 51 -11 122 -9 l109 3 0 60
0 60 -116 3 c-63 1 -118 -1 -122 -4z"/>
<path d="M4464 7446 c-3 -7 -4 -35 -2 -62 l3 -49 60 0 60 0 3 63 3 62 -61 0
c-42 0 -62 -4 -66 -14z"/>
<path d="M5106 7444 c-3 -9 -6 -31 -6 -49 0 -59 6 -65 71 -65 l59 0 0 -49 c0
-70 5 -78 45 -73 19 2 46 1 60 -2 23 -6 25 -11 25 -66 l0 -60 125 0 125 0 0
60 0 59 -62 3 -63 3 -3 63 -3 62 -59 0 -60 0 0 65 0 65 -124 0 c-104 0 -125
-3 -130 -16z"/>
<path d="M5490 7395 l0 -66 58 3 57 3 3 63 3 62 -61 0 -60 0 0 -65z"/>
<path d="M5750 7270 l0 -190 60 0 60 0 0 60 c0 54 2 60 23 65 12 3 98 5 190 3
l167 -3 0 63 0 62 -190 0 -190 0 0 65 0 65 -60 0 -60 0 0 -190z"/>
<path d="M6262 7398 l3 -63 55 0 55 0 3 63 3 62 -61 0 -61 0 3 -62z"/>
<path d="M1397 7324 c-8 -8 -10 -86 -2 -106 6 -15 101 -16 116 -1 6 6 9 32 7
59 l-3 49 -55 3 c-31 2 -59 0 -63 -4z"/>
<path d="M1910 7268 l0 -63 57 1 58 2 0 58 0 59 -57 3 -58 3 0 -63z"/>
<path d="M4597 7317 c-3 -8 -4 -63 -4 -123 l2 -109 63 -3 63 -3 -3 123 -3 123
-56 3 c-41 2 -58 -1 -62 -11z"/>
<path d="M4980 7212 c0 -78 -4 -122 -12 -130 -8 -8 -52 -12 -130 -12 l-118 0
0 -60 0 -60 188 2 187 3 5 60 5 60 63 3 62 3 0 59 0 60 -65 0 -65 0 0 65 0 65
-60 0 -60 0 0 -118z"/>
<path d="M1262 6948 l3 -253 125 0 125 0 0 185 0 185 -60 5 -60 5 -3 63 -3 62
-65 0 -64 0 2 -252z"/>
<path d="M1650 7140 l0 -60 125 0 125 0 0 60 0 60 -125 0 -125 0 0 -60z"/>
<path d="M2028 7138 l-3 -63 -57 -3 -58 -3 0 -59 0 -60 60 0 60 0 0 -65 0 -65
-60 0 -60 0 0 -65 0 -65 188 -2 187 -3 0 -60 0 -60 -187 -3 -188 -2 0 -60 0
-59 123 -3 122 -3 3 -127 3 -128 124 0 124 0 3 128 3 127 63 3 62 3 0 59 0 59
-62 3 -63 3 0 125 0 125 127 3 127 3 3 -63 3 -63 60 0 60 0 -3 42 c-6 75 1 83
69 83 l59 0 0 65 0 65 -252 2 -253 3 -3 123 -3 122 -189 0 -189 0 -3 -62z
m257 -123 l0 -60 -62 -3 -61 -3 -4 49 c-5 82 -5 83 65 80 l62 -3 0 -60z"/>
<path d="M2800 7140 l0 -60 125 0 125 0 0 60 0 60 -125 0 -125 0 0 -60z"/>
<path d="M5232 7013 l3 -58 63 -3 62 -3 0 -64 0 -65 125 0 125 0 0 65 0 65
-125 0 -125 0 0 60 0 60 -65 0 -66 0 3 -57z"/>
<path d="M5620 7010 l0 -61 58 3 57 3 3 58 3 57 -61 0 -60 0 0 -60z"/>
<path d="M5877 7063 c-4 -3 -7 -30 -7 -60 l0 -53 -60 0 -59 0 -3 -127 -3 -128
-61 -3 c-60 -3 -62 -4 -68 -34 -8 -40 -8 -147 0 -187 6 -30 7 -31 65 -31 l59
0 0 59 c0 68 8 75 83 69 l42 -3 3 128 3 127 64 0 64 0 3 -62 3 -63 58 -3 58
-3 -3 63 c-2 47 -7 63 -18 64 -8 1 -34 2 -57 3 l-43 1 0 65 0 64 58 3 57 3 3
58 3 57 -119 0 c-65 0 -122 -3 -125 -7z"/>
<path d="M1657 6943 c-4 -3 -7 -33 -7 -65 l0 -58 125 0 125 0 0 65 0 65 -118
0 c-65 0 -122 -3 -125 -7z"/>
<path d="M5104 6937 c-3 -8 -4 -36 -2 -63 l3 -49 63 -3 63 -3 -3 63 -3 63 -58
3 c-42 2 -59 -1 -63 -11z"/>
<path d="M6130 6885 l0 -65 125 0 125 0 0 65 0 65 -125 0 -125 0 0 -65z"/>
<path d="M4857 6814 c-4 -4 -7 -34 -7 -66 l0 -59 123 3 122 3 0 60 0 60 -116
3 c-63 1 -118 -1 -122 -4z"/>
<path d="M5234 6807 c-3 -8 -4 -36 -2 -63 l3 -49 63 -3 62 -3 0 -124 0 -125
60 0 60 0 0 125 0 125 -60 0 -59 0 -3 63 -3 62 -58 3 c-42 2 -59 -1 -63 -11z"/>
<path d="M6130 6628 l0 -63 60 0 60 0 0 63 0 62 -60 0 -60 0 0 -62z"/>
<path d="M1132 6438 l3 -123 63 -3 62 -3 0 -64 0 -65 -53 0 c-29 0 -58 -5 -65
-12 -18 -18 -17 -992 1 -1005 6 -5 35 -9 62 -9 l50 1 3 193 2 192 65 0 64 0 3
-122 3 -123 63 -3 62 -3 0 61 0 61 63 -3 62 -3 3 -57 3 -58 59 0 60 0 0 60 0
60 130 0 130 0 0 -65 0 -65 -60 0 -61 0 3 -62 3 -63 100 -3 c110 -3 147 2 144
21 -1 7 -1 36 0 66 l1 53 60 -4 60 -4 0 63 0 63 -60 0 -60 0 0 59 c0 46 -4 60
-17 65 -9 4 -86 6 -172 6 -86 -1 -166 -1 -178 -1 -21 1 -23 6 -23 61 l0 60
-252 2 -253 3 -3 192 -2 192 127 3 128 3 0 60 0 60 -40 2 c-22 1 -50 2 -63 2
-22 1 -23 4 -20 64 l3 62 60 0 60 0 3 -62 3 -62 62 -3 62 -3 5 -60 5 -60 55 0
55 0 5 60 5 60 125 5 125 5 3 58 3 57 -180 0 c-99 0 -186 3 -195 6 -12 5 -16
21 -16 65 l0 58 -57 3 -58 3 -5 60 -5 60 -193 3 -193 2 3 -122z"/>
<path d="M1650 6500 l0 -60 60 0 60 0 0 60 0 60 -60 0 -60 0 0 -60z"/>
<path d="M5872 6503 l3 -58 123 -3 122 -3 0 61 0 60 -125 0 -126 0 3 -57z"/>
<path d="M2674 6416 c-3 -7 -4 -33 -2 -57 l3 -44 57 -3 56 -3 4 56 c1 31 1 59
-1 61 -2 2 -28 4 -58 4 -36 0 -55 -4 -59 -14z"/>
<path d="M5104 6416 c-3 -7 -4 -33 -2 -57 l3 -44 62 -3 62 -3 3 -62 3 -62 123
-3 122 -3 0 60 0 60 -57 3 -58 3 -3 63 -3 62 -125 0 c-97 0 -126 -3 -130 -14z"/>
<path d="M5490 6370 l0 -60 60 0 60 0 0 60 0 60 -60 0 -60 0 0 -60z"/>
<path d="M5750 6377 c0 -29 -5 -58 -12 -65 -7 -7 -36 -12 -65 -12 -35 0 -54
-4 -55 -12 -12 -100 -8 -107 65 -110 l62 -3 5 -60 5 -60 55 0 55 0 3 188 2
187 -60 0 -60 0 0 -53z"/>
<path d="M6130 6305 l0 -124 63 -3 62 -3 3 -122 3 -123 59 0 60 0 0 250 0 250
-125 0 -125 0 0 -125z"/>
<path d="M4592 6278 c1 -13 1 -40 0 -60 l-2 -37 -62 -3 -63 -3 -3 -62 -3 -63
-59 0 -60 0 0 -62 0 -63 380 3 380 2 0 185 0 185 -60 0 -59 0 -3 -122 -3 -123
-127 -3 -128 -3 0 66 0 65 60 0 60 0 0 60 0 60 -124 0 c-123 0 -125 0 -124
-22z"/>
<path d="M2034 6166 c-3 -7 -4 -35 -2 -62 l3 -49 60 0 60 0 3 54 c3 37 0 56
-10 62 -22 14 -108 11 -114 -5z"/>
<path d="M5494 6166 c-3 -7 -4 -35 -2 -62 l3 -49 58 -3 57 -3 0 66 0 65 -55 0
c-38 0 -57 -4 -61 -14z"/>
<path d="M1520 5925 l0 -125 60 0 60 0 0 125 0 125 -60 0 -60 0 0 -125z"/>
<path d="M1775 6030 c-5 -17 1 -89 8 -96 1 -2 56 -4 122 -5 l120 -1 0 58 0 59
-122 3 c-114 2 -122 1 -128 -18z"/>
<path d="M2160 5990 l0 -60 44 0 c24 0 51 -3 60 -6 14 -5 16 4 16 60 l0 66
-60 0 -60 0 0 -60z"/>
<path d="M5236 6035 c-7 -20 -8 -78 -1 -97 4 -9 22 -12 66 -10 l60 4 -3 56 -3
57 -56 3 c-45 2 -58 0 -63 -13z"/>
<path d="M5618 6028 c-2 -13 -2 -41 0 -63 l4 -40 59 3 59 4 0 59 0 59 -59 0
c-53 0 -59 -2 -63 -22z"/>
<path d="M5877 6043 c-9 -9 -9 -95 1 -108 4 -6 58 -10 125 -10 l117 0 0 63 0
62 -118 0 c-65 0 -122 -3 -125 -7z"/>
<path d="M2290 5860 l0 -60 60 0 60 0 0 60 0 60 -60 0 -60 0 0 -60z"/>
<path d="M3570 5860 l0 -60 318 -2 317 -3 5 -255 c3 -140 8 -254 13 -252 4 1
29 2 57 2 l50 0 2 188 3 187 63 3 62 3 0 59 c0 67 7 62 -90 64 l-35 1 -3 63
-3 62 -379 0 -380 0 0 -60z"/>
<path d="M5104 5863 l1 -58 63 -3 62 -3 0 61 0 60 -64 0 -63 0 1 -57z"/>
<path d="M5360 5861 c0 -67 -4 -71 -81 -71 l-50 0 3 -122 3 -123 63 -3 62 -3
0 66 0 65 125 0 c93 0 125 -3 126 -12 1 -7 1 -52 -1 -101 -1 -48 2 -101 5
-118 7 -29 8 -30 63 -27 l57 3 5 60 5 60 63 3 62 3 0 189 0 190 -60 0 -60 0 0
-59 c0 -68 -3 -70 -85 -68 l-50 2 -3 63 -3 62 -124 0 -125 0 0 -59z"/>
<path d="M6130 5860 l0 -60 60 0 60 0 0 60 0 60 -60 0 -60 0 0 -60z"/>
<path d="M2078 5792 l-168 -2 0 -60 0 -60 185 0 185 0 0 59 c0 48 -3 59 -17
62 -10 2 -93 3 -185 1z"/>
<path d="M3451 5792 c-7 -2 -11 -48 -11 -128 l0 -124 59 0 59 0 6 35 c10 54 5
205 -8 212 -11 7 -88 11 -105 5z"/>
<path d="M4597 5783 c-3 -5 -6 -60 -6 -123 -1 -63 -4 -116 -7 -119 -2 -2 -30
-5 -61 -5 l-58 -1 0 -120 0 -120 63 -3 62 -3 0 61 0 60 255 0 255 0 0 -52 c0
-29 4 -57 8 -63 4 -5 32 -10 62 -10 l55 0 3 -322 2 -323 -64 0 -65 0 -3 63 -3
62 -57 3 -58 3 0 -115 c0 -63 -3 -121 -6 -130 -5 -12 -21 -16 -65 -16 l-59 0
0 -60 0 -60 125 0 124 0 3 63 3 62 115 1 c63 1 121 -1 128 -4 8 -3 12 -25 12
-63 l0 -59 60 0 60 0 0 125 0 125 135 0 135 0 0 -125 0 -125 250 0 250 0 0 60
0 60 -187 2 -188 3 -3 62 -3 62 63 3 63 3 0 60 0 60 -62 3 -63 3 0 65 0 65
128 -3 127 -3 5 -60 5 -60 120 0 120 0 0 60 0 60 -60 5 -60 5 -3 39 c-2 22 -1
50 2 63 6 21 12 23 66 23 l60 0 0 60 0 59 -62 3 -63 3 -3 63 -3 62 -124 0
-125 0 0 -60 c0 -41 4 -60 13 -62 6 0 17 -2 22 -3 6 -2 29 -3 53 -4 l43 -1 -3
-62 -3 -63 -125 0 -125 0 -3 193 -2 192 -60 0 -59 0 -3 -62 -3 -63 -65 0 -65
0 -3 63 -3 62 -59 0 -59 0 -3 -62 -3 -63 -62 -3 -63 -3 0 66 0 65 60 0 61 0
-3 63 -3 62 -35 2 c-73 5 -80 -1 -80 -67 l0 -60 -65 0 -64 0 -3 63 -3 62 -62
3 -63 3 0 59 0 60 -60 0 -59 0 -3 -57 -3 -58 -65 0 -65 0 -3 57 -3 57 -57 3
-57 3 -3 63 -3 62 -59 0 c-32 0 -61 -3 -63 -7z m1140 -637 c11 -5 13 -41 11
-188 l-3 -183 -192 -3 -193 -2 0 189 c0 169 2 190 17 193 26 5 344 0 360 -6z"/>
<path d="M5492 4963 l3 -58 58 -3 57 -3 0 61 0 60 -60 0 -61 0 3 -57z"/>
<path d="M4850 5730 l0 -60 60 0 60 0 0 60 0 60 -60 0 -60 0 0 -60z"/>
<path d="M2420 5600 l0 -60 -50 -1 c-27 -1 -56 -2 -62 -3 -9 -1 -13 -20 -13
-61 l0 -60 120 0 120 0 3 123 3 122 -61 0 -60 0 0 -60z"/>
<path d="M3700 5600 l0 -61 123 3 122 3 3 58 3 57 -126 0 -125 0 0 -60z"/>
<path d="M6130 5600 l0 -60 60 0 60 0 0 60 0 60 -60 0 -60 0 0 -60z"/>
<path d="M5882 5531 c-9 -5 -12 -26 -10 -62 l3 -54 120 0 120 0 0 60 0 60
-110 2 c-61 1 -116 -2 -123 -6z"/>
<path d="M6260 5350 l0 -60 60 0 60 0 0 60 0 60 -60 0 -60 0 0 -60z"/>
<path d="M4588 5153 l-3 -128 -60 -5 -60 -5 0 -55 0 -55 315 0 315 0 3 123 3
122 -60 0 -60 0 -3 -62 -3 -63 -59 -3 c-41 -2 -62 1 -67 10 -5 7 -9 66 -9 131
l0 117 -125 0 -124 0 -3 -127z"/>
<path d="M3825 5138 c-2 -7 -6 -35 -7 -63 l-3 -50 -122 -3 -123 -3 0 -59 0
-59 63 -3 62 -3 5 -60 5 -60 58 -3 57 -3 0 -124 0 -124 108 -3 c159 -5 152 -8
152 63 l0 59 -65 0 -65 0 0 65 0 64 63 3 62 3 3 54 c4 64 -3 71 -75 71 l-52 0
-3 123 -3 122 -58 3 c-40 2 -59 -1 -62 -10z"/>
<path d="M1134 5007 c-2 -7 -3 -206 -2 -442 l3 -430 445 0 445 0 3 443 2 442
-445 0 c-356 0 -447 -3 -451 -13z m771 -427 l0 -315 -322 -3 -323 -2 0 320 0
320 323 -2 322 -3 0 -315z"/>
<path d="M1395 4757 c-3 -7 -4 -91 -3 -187 l3 -175 188 -3 187 -2 -2 187 -3
188 -183 3 c-143 2 -184 0 -187 -11z"/>
<path d="M4212 4963 l3 -58 58 -3 57 -3 0 61 0 60 -60 0 -61 0 3 -57z"/>
<path d="M2167 4893 c-4 -3 -7 -118 -7 -254 l0 -248 63 -3 62 -3 3 -63 3 -63
122 3 122 3 3 58 3 57 -59 0 c-45 0 -61 4 -66 16 -3 9 -6 67 -6 130 l0 114
-65 0 -66 0 3 63 3 62 60 5 60 5 3 63 3 62 -119 0 c-65 0 -122 -3 -125 -7z"/>
<path d="M4217 4763 c-11 -11 -8 -241 3 -245 5 -1 32 -1 60 0 l50 4 0 124 0
124 -53 0 c-30 0 -57 -3 -60 -7z"/>
<path d="M4464 4756 c-3 -7 -4 -35 -2 -62 l3 -49 188 -3 187 -2 0 65 0 65
-185 0 c-148 0 -187 -3 -191 -14z"/>
<path d="M3440 4580 c0 -41 4 -60 13 -61 6 0 31 -1 55 -3 48 -3 58 5 60 53 4
64 -3 71 -69 71 l-59 0 0 -60z"/>
<path d="M4078 4448 l-3 -63 -125 -5 -125 -5 -3 -57 -3 -58 -60 0 -60 0 3 -62
3 -63 185 0 185 0 3 63 3 62 124 0 125 0 0 60 0 60 -59 0 c-67 0 -71 4 -71 81
l0 49 -60 0 -59 0 -3 -62z"/>
<path d="M4340 4450 l0 -60 60 0 61 0 -3 58 -3 57 -57 3 -58 3 0 -61z"/>
<path d="M4594 4496 c-3 -7 -4 -33 -2 -57 l3 -44 63 -3 62 -3 0 61 0 60 -60 0
c-42 0 -62 -4 -66 -14z"/>
<path d="M4462 4323 l3 -58 63 -3 62 -3 0 61 0 60 -65 0 -66 0 3 -57z"/>
<path d="M4720 4320 l0 -60 60 0 60 0 0 60 0 60 -60 0 -60 0 0 -60z"/>
<path d="M5617 4333 c-7 -68 -3 -73 64 -73 l59 0 0 60 0 60 -59 0 -58 0 -6
-47z"/>
<path d="M6260 4320 l0 -60 60 0 60 0 0 60 0 60 -60 0 -60 0 0 -60z"/>
<path d="M2172 4251 c-9 -5 -12 -25 -10 -62 l3 -54 58 -3 57 -3 0 66 0 65 -47
0 c-27 0 -54 -4 -61 -9z"/>
<path d="M4340 4195 l0 -66 58 3 57 3 0 60 0 60 -57 3 -58 3 0 -66z"/>
<path d="M4596 4243 c-8 -19 -8 -77 0 -97 6 -16 75 -23 108 -10 24 9 23 111
-1 118 -36 11 -102 4 -107 -11z"/>
<path d="M4854 4246 c-3 -7 -4 -35 -2 -62 l3 -49 185 0 185 0 0 60 0 60 -183
3 c-149 2 -183 0 -188 -12z"/>
<path d="M5372 4251 c-9 -5 -12 -25 -10 -62 l3 -54 120 0 120 0 3 63 3 62
-113 0 c-62 0 -119 -4 -126 -9z"/>
<path d="M5752 4198 l3 -63 55 0 55 0 0 60 0 60 -58 3 -58 3 3 -63z"/>
<path d="M2425 580 c-18 -35 -19 -56 -4 -99 12 -35 50 -51 74 -31 19 15 21
130 3 148 -22 22 -57 14 -73 -18z"/>
<path d="M5334 692 c-29 -20 -44 -59 -44 -117 0 -69 25 -121 64 -131 56 -14
96 44 96 141 0 49 -4 60 -29 86 -28 28 -64 37 -87 21z"/>
<path d="M979 603 c-7 -27 -15 -54 -17 -60 -2 -9 9 -13 37 -13 27 0 41 4 41
13 0 23 -31 107 -40 107 -4 0 -14 -21 -21 -47z"/>
<path d="M1390 595 c-20 -24 -4 -45 32 -45 49 0 61 11 42 38 -17 25 -56 29
-74 7z"/>
<path d="M1884 496 c-11 -28 1 -51 27 -54 30 -4 59 20 59 49 0 16 -7 19 -40
19 -26 0 -43 -5 -46 -14z"/>
<path d="M2696 591 c-24 -27 -12 -41 35 -41 43 0 60 19 39 45 -17 21 -54 19
-74 -4z"/>
<path d="M3850 495 c-7 -8 -10 -22 -6 -30 15 -40 86 -24 86 20 0 22 -4 25 -34
25 -18 0 -39 -7 -46 -15z"/>
<path d="M4381 492 c-13 -24 4 -52 32 -52 29 0 47 18 47 47 0 20 -5 23 -35 23
-23 0 -38 -6 -44 -18z"/>
<path d="M4911 596 c-16 -19 -25 -79 -17 -110 13 -52 82 -59 104 -11 21 45 10
106 -22 127 -18 12 -53 9 -65 -6z"/>
<path d="M6271 596 c-7 -9 -11 -39 -9 -77 3 -60 5 -64 32 -74 24 -8 31 -6 47
14 26 32 26 111 1 134 -23 21 -56 22 -71 3z"/>
<path d="M6540 590 c-15 -28 -5 -40 33 -40 44 0 56 10 46 38 -11 29 -63 31
-79 2z"/>
</g>
</svg>
