<?xml version="1.0" standalone="no"?>
<!DOCTYPE svg PUBLIC "-//W3C//DTD SVG 20010904//EN"
 "http://www.w3.org/TR/2001/REC-SVG-20010904/DTD/svg10.dtd">
<svg version="1.0" xmlns="http://www.w3.org/2000/svg"
 width="1280.000000pt" height="676.000000pt" viewBox="0 0 1280.000000 676.000000"
 preserveAspectRatio="xMidYMid meet">

<g transform="translate(0.000000,676.000000) scale(0.100000,-0.100000)"
fill="#000000" stroke="none">
<path d="M0 3380 l0 -3380 6400 0 6400 0 0 3380 0 3380 -6400 0 -6400 0 0
-3380z m6932 2827 c189 -50 339 -136 478 -276 187 -188 281 -413 281 -676 0
-258 -88 -476 -267 -665 -138 -144 -287 -233 -484 -288 -86 -24 -112 -27 -270
-27 -154 0 -186 3 -265 24 -49 13 -101 24 -114 23 -13 -1 -81 -37 -150 -81
-191 -119 -214 -128 -241 -96 -10 12 -9 51 8 203 24 216 29 194 -73 329 -73
95 -125 197 -161 318 -25 82 -28 104 -28 255 0 139 4 177 22 245 103 375 414
655 809 730 119 22 331 14 455 -18z m1716 -2276 c63 -32 99 -68 128 -127 22
-45 26 -67 26 -132 -2 -174 -94 -322 -274 -440 -96 -62 -183 -97 -295 -118
-48 -9 -93 -18 -100 -19 -13 -4 -26 -71 -25 -132 2 -95 66 -147 152 -124 79
21 132 54 222 139 76 70 94 82 124 82 31 0 37 -4 51 -37 53 -128 -59 -306
-251 -398 -230 -111 -424 -76 -508 90 -83 164 -30 577 111 866 102 207 268
354 428 378 65 9 164 -4 211 -28z m-945 -78 c47 -28 94 -96 117 -169 25 -84
28 -286 4 -425 -38 -226 -148 -457 -287 -601 -147 -153 -357 -221 -472 -153
-24 14 -49 33 -54 43 -5 9 -12 15 -14 12 -7 -7 -97 -323 -94 -327 2 -2 85 6
185 17 480 53 928 84 1139 78 123 -3 133 -5 157 -27 49 -46 28 -174 -34 -206
-20 -10 -88 -21 -193 -30 -89 -8 -297 -26 -462 -40 -293 -25 -820 -80 -860
-90 -16 -3 -26 -25 -47 -94 -43 -138 -84 -175 -194 -169 -54 3 -60 5 -73 33
-12 24 -12 41 -2 103 7 41 10 76 7 79 -11 11 -1159 -200 -1219 -225 -11 -4
-43 -70 -87 -182 -216 -539 -431 -830 -689 -932 -76 -30 -259 -32 -338 -5 -69
24 -144 93 -172 157 -30 69 -30 213 -1 325 25 95 91 237 150 326 68 101 231
255 361 341 169 112 254 154 490 240 23 8 33 31 93 216 36 114 66 211 66 215
0 5 -23 -12 -51 -37 -81 -72 -214 -126 -312 -126 -97 0 -177 59 -203 148 -23
79 -14 244 20 377 14 55 63 197 107 315 80 212 82 216 80 302 -1 84 0 88 25
105 40 26 138 23 197 -6 72 -35 83 -57 69 -145 -6 -40 -47 -182 -92 -317 -128
-388 -135 -449 -53 -449 141 0 288 236 483 775 39 110 83 219 97 243 43 75
146 131 249 135 62 3 78 -18 71 -93 -3 -30 -111 -399 -240 -820 -129 -421
-234 -766 -233 -767 2 -2 162 24 357 56 195 33 466 76 604 96 138 20 255 41
261 48 6 7 25 65 42 129 l30 117 -47 -19 c-60 -23 -131 -34 -171 -25 -43 9
-96 58 -110 101 l-12 35 -28 -38 c-98 -134 -236 -189 -371 -150 -212 63 -259
350 -124 767 116 356 359 630 560 630 49 0 131 -28 163 -55 33 -28 52 -32 52
-11 0 25 56 74 92 81 47 9 114 -11 145 -41 33 -33 30 -59 -42 -284 -115 -359
-180 -662 -156 -722 12 -32 29 -35 71 -13 57 29 60 38 210 585 109 398 124
440 163 478 64 62 171 83 201 40 9 -12 16 -38 16 -58 1 -33 1 -34 16 -15 34
46 91 98 128 117 77 39 193 39 259 1z"/>
<path d="M6340 5641 c-99 -32 -161 -95 -179 -183 -18 -82 1 -149 56 -199 44
-39 75 -57 184 -99 179 -70 219 -106 205 -183 -12 -63 -68 -97 -158 -97 -130
1 -218 77 -218 189 0 31 -6 44 -27 60 -48 39 -103 0 -103 -73 0 -130 86 -243
218 -285 135 -44 285 -14 356 70 47 56 60 90 60 164 1 59 -3 77 -27 117 -36
61 -85 94 -231 153 -188 77 -217 106 -180 181 24 49 63 68 135 68 94 -1 169
-69 169 -152 0 -57 69 -83 111 -41 18 18 21 29 16 75 -10 96 -65 172 -156 216
-49 24 -183 35 -231 19z"/>
<path d="M7212 5618 c-31 -39 -422 -775 -420 -792 2 -10 15 -28 29 -38 50 -38
59 -26 279 380 113 207 206 388 208 403 2 15 -4 34 -13 43 -19 19 -68 21 -83
4z"/>
<path d="M8413 3731 c-69 -43 -167 -202 -207 -340 l-16 -53 32 6 c47 9 135 52
178 86 47 37 116 140 131 194 12 46 6 79 -21 106 -25 25 -56 25 -97 1z"/>
<path d="M7389 3530 c-65 -34 -118 -118 -185 -292 -38 -99 -134 -421 -134
-450 0 -12 13 -24 37 -34 137 -58 300 113 402 422 91 274 36 436 -120 354z"/>
<path d="M6382 3475 c-49 -21 -149 -121 -199 -198 -97 -149 -170 -399 -149
-511 22 -114 132 -130 219 -31 86 98 257 539 257 662 0 35 -15 72 -34 85 -17
12 -58 9 -94 -7z"/>
<path d="M4845 1551 c-223 -107 -444 -333 -506 -518 -13 -41 -23 -94 -23 -132
-1 -61 1 -66 27 -80 26 -15 30 -14 85 14 75 38 203 167 274 275 85 129 236
443 226 471 -2 4 -39 -9 -83 -30z"/>
</g>
</svg>
